<svg id="visual" viewBox="0 0 960 300" width="960" height="300" xmlns="http://www.w3.org/2000/svg" xmlns:xlink="http://www.w3.org/1999/xlink" version="1.1"><rect x="0" y="0" width="960" height="300" fill="#0656D3"></rect><path d="M0 87L20 99.5C40 112 80 137 120 143.3C160 149.7 200 137.3 240 136.2C280 135 320 145 360 144.5C400 144 440 133 480 117.8C520 102.7 560 83.3 600 81C640 78.7 680 93.3 720 104.3C760 115.3 800 122.7 840 116.3C880 110 920 90 940 80L960 70L960 301L940 301C920 301 880 301 840 301C800 301 760 301 720 301C680 301 640 301 600 301C560 301 520 301 480 301C440 301 400 301 360 301C320 301 280 301 240 301C200 301 160 301 120 301C80 301 40 301 20 301L0 301Z" fill="#46d5d7"></path><path d="M0 121L20 126.2C40 131.3 80 141.7 120 150.8C160 160 200 168 240 168C280 168 320 160 360 159.8C400 159.7 440 167.3 480 159C520 150.7 560 126.3 600 113.8C640 101.3 680 100.7 720 101C760 101.3 800 102.7 840 116.8C880 131 920 158 940 171.5L960 185L960 301L940 301C920 301 880 301 840 301C800 301 760 301 720 301C680 301 640 301 600 301C560 301 520 301 480 301C440 301 400 301 360 301C320 301 280 301 240 301C200 301 160 301 120 301C80 301 40 301 20 301L0 301Z" fill="#12b1c8"></path><path d="M0 190L20 193.3C40 196.7 80 203.3 120 201.2C160 199 200 188 240 185.8C280 183.7 320 190.3 360 191.8C400 193.3 440 189.7 480 180.7C520 171.7 560 157.3 600 155.3C640 153.3 680 163.7 720 164.2C760 164.7 800 155.3 840 158.3C880 161.3 920 176.7 940 184.3L960 192L960 301L940 301C920 301 880 301 840 301C800 301 760 301 720 301C680 301 640 301 600 301C560 301 520 301 480 301C440 301 400 301 360 301C320 301 280 301 240 301C200 301 160 301 120 301C80 301 40 301 20 301L0 301Z" fill="#008db2"></path><path d="M0 179L20 181.5C40 184 80 189 120 194.7C160 200.3 200 206.7 240 211.3C280 216 320 219 360 215.8C400 212.7 440 203.3 480 197.7C520 192 560 190 600 197.7C640 205.3 680 222.7 720 219.7C760 216.7 800 193.3 840 190.2C880 187 920 204 940 212.5L960 221L960 301L940 301C920 301 880 301 840 301C800 301 760 301 720 301C680 301 640 301 600 301C560 301 520 301 480 301C440 301 400 301 360 301C320 301 280 301 240 301C200 301 160 301 120 301C80 301 40 301 20 301L0 301Z" fill="#186a96"></path><path d="M0 215L20 215.2C40 215.3 80 215.7 120 217C160 218.3 200 220.7 240 220C280 219.3 320 215.7 360 216C400 216.3 440 220.7 480 220.3C520 220 560 215 600 213.7C640 212.3 680 214.7 720 220C760 225.3 800 233.7 840 237.2C880 240.7 920 239.3 940 238.7L960 238L960 301L940 301C920 301 880 301 840 301C800 301 760 301 720 301C680 301 640 301 600 301C560 301 520 301 480 301C440 301 400 301 360 301C320 301 280 301 240 301C200 301 160 301 120 301C80 301 40 301 20 301L0 301Z" fill="#254874"></path><path d="M0 270L20 269.2C40 268.3 80 266.7 120 263.8C160 261 200 257 240 253.7C280 250.3 320 247.7 360 248C400 248.3 440 251.7 480 251.5C520 251.3 560 247.7 600 250C640 252.3 680 260.7 720 260.7C760 260.7 800 252.3 840 249.7C880 247 920 250 940 251.5L960 253L960 301L940 301C920 301 880 301 840 301C800 301 760 301 720 301C680 301 640 301 600 301C560 301 520 301 480 301C440 301 400 301 360 301C320 301 280 301 240 301C200 301 160 301 120 301C80 301 40 301 20 301L0 301Z" fill="#262950"></path></svg>