<svg id="visual" viewBox="0 0 960 300" width="960" height="300" xmlns="http://www.w3.org/2000/svg" xmlns:xlink="http://www.w3.org/1999/xlink" version="1.1"><g transform="translate(485.3470278183283 163.7923231901123)"><path d="M99.2 -126.7C119.6 -101.1 120.8 -61.3 125.7 -23.7C130.5 14 138.9 49.5 126.2 74.2C113.5 99 79.9 112.9 47.1 121.4C14.3 130 -17.7 133.1 -52.4 127.6C-87.2 122.1 -124.8 107.9 -137.9 81.4C-150.9 55 -139.5 16.2 -125 -14.4C-110.5 -45 -92.9 -67.4 -71.6 -92.8C-50.2 -118.2 -25.1 -146.6 7.2 -155.1C39.4 -163.7 78.8 -152.3 99.2 -126.7" fill="#0656D3"></path></g></svg>