<svg id="visual" viewBox="0 0 960 300" width="960" height="300" xmlns="http://www.w3.org/2000/svg" xmlns:xlink="http://www.w3.org/1999/xlink" version="1.1"><g transform="translate(471.3289661576498 164.84063318704767)"><path d="M101.5 -126.8C122.7 -103.2 124.9 -62.8 130.2 -24.2C135.5 14.4 144 51.2 130.9 77.2C117.8 103.1 83.2 118.3 50.7 123C18.2 127.8 -12.1 122.2 -37.1 109.7C-62.1 97.2 -81.8 77.9 -96.4 54.7C-111 31.4 -120.5 4.3 -120.5 -25.7C-120.5 -55.6 -111 -88.3 -89.4 -111.8C-67.7 -135.4 -33.9 -149.7 3.2 -153.4C40.2 -157.2 80.3 -150.4 101.5 -126.8" fill="#0656D3"></path></g></svg>