<svg id="visual" viewBox="0 0 960 300" width="960" height="300" xmlns="http://www.w3.org/2000/svg" xmlns:xlink="http://www.w3.org/1999/xlink" version="1.1"><g transform="translate(472.4368865827897 150.5127975709765)"><path d="M87.8 -95C118.5 -78.8 151.6 -55.7 157.6 -27C163.5 1.6 142.4 35.8 118.3 59.6C94.2 83.4 67.1 96.8 38.9 107C10.8 117.3 -18.6 124.4 -51.1 121C-83.6 117.5 -119.3 103.5 -134.3 77.5C-149.3 51.6 -143.6 13.6 -133.6 -20.2C-123.6 -54 -109.4 -83.7 -86.4 -101.3C-63.4 -118.9 -31.7 -124.5 -1.6 -122.5C28.5 -120.6 57 -111.3 87.8 -95" fill="#0656D3"></path></g></svg>