<svg id="visual" viewBox="0 0 960 300" width="960" height="300" xmlns="http://www.w3.org/2000/svg" xmlns:xlink="http://www.w3.org/1999/xlink" version="1.1"><rect x="0" y="0" width="960" height="300" fill="#16213E"></rect><path d="M0 220L22.8 209.5C45.7 199 91.3 178 137 165.3C182.7 152.7 228.3 148.3 274 147.2C319.7 146 365.3 148 411.2 151.3C457 154.7 503 159.3 548.8 173.2C594.7 187 640.3 210 686 210.5C731.7 211 777.3 189 823 189.5C868.7 190 914.3 213 937.2 224.5L960 236L960 0L937.2 0C914.3 0 868.7 0 823 0C777.3 0 731.7 0 686 0C640.3 0 594.7 0 548.8 0C503 0 457 0 411.2 0C365.3 0 319.7 0 274 0C228.3 0 182.7 0 137 0C91.3 0 45.7 0 22.8 0L0 0Z" fill="#e94560"></path><path d="M0 132L22.8 139.5C45.7 147 91.3 162 137 161.5C182.7 161 228.3 145 274 135.5C319.7 126 365.3 123 411.2 134C457 145 503 170 548.8 170.5C594.7 171 640.3 147 686 140.2C731.7 133.3 777.3 143.7 823 142.3C868.7 141 914.3 128 937.2 121.5L960 115L960 0L937.2 0C914.3 0 868.7 0 823 0C777.3 0 731.7 0 686 0C640.3 0 594.7 0 548.8 0C503 0 457 0 411.2 0C365.3 0 319.7 0 274 0C228.3 0 182.7 0 137 0C91.3 0 45.7 0 22.8 0L0 0Z" fill="#e9247a"></path><path d="M0 117L22.8 122.2C45.7 127.3 91.3 137.7 137 142.8C182.7 148 228.3 148 274 140C319.7 132 365.3 116 411.2 114.7C457 113.3 503 126.7 548.8 128.3C594.7 130 640.3 120 686 120.7C731.7 121.3 777.3 132.7 823 133.2C868.7 133.7 914.3 123.3 937.2 118.2L960 113L960 0L937.2 0C914.3 0 868.7 0 823 0C777.3 0 731.7 0 686 0C640.3 0 594.7 0 548.8 0C503 0 457 0 411.2 0C365.3 0 319.7 0 274 0C228.3 0 182.7 0 137 0C91.3 0 45.7 0 22.8 0L0 0Z" fill="#dc009b"></path><path d="M0 52L22.8 53.8C45.7 55.7 91.3 59.3 137 67.7C182.7 76 228.3 89 274 92.8C319.7 96.7 365.3 91.3 411.2 89.2C457 87 503 88 548.8 89.2C594.7 90.3 640.3 91.7 686 95.2C731.7 98.7 777.3 104.3 823 104C868.7 103.7 914.3 97.3 937.2 94.2L960 91L960 0L937.2 0C914.3 0 868.7 0 823 0C777.3 0 731.7 0 686 0C640.3 0 594.7 0 548.8 0C503 0 457 0 411.2 0C365.3 0 319.7 0 274 0C228.3 0 182.7 0 137 0C91.3 0 45.7 0 22.8 0L0 0Z" fill="#b500c7"></path><path d="M0 70L22.8 62.5C45.7 55 91.3 40 137 35.5C182.7 31 228.3 37 274 40.7C319.7 44.3 365.3 45.7 411.2 43.3C457 41 503 35 548.8 37.8C594.7 40.7 640.3 52.3 686 55.3C731.7 58.3 777.3 52.7 823 45.5C868.7 38.3 914.3 29.7 937.2 25.3L960 21L960 0L937.2 0C914.3 0 868.7 0 823 0C777.3 0 731.7 0 686 0C640.3 0 594.7 0 548.8 0C503 0 457 0 411.2 0C365.3 0 319.7 0 274 0C228.3 0 182.7 0 137 0C91.3 0 45.7 0 22.8 0L0 0Z" fill="#0000ff"></path></svg>