<svg id="visual" viewBox="0 0 960 300" width="960" height="300" xmlns="http://www.w3.org/2000/svg" xmlns:xlink="http://www.w3.org/1999/xlink" version="1.1"><rect x="0" y="0" width="960" height="300" fill="#16213E"></rect><path d="M0 157L22.8 159.8C45.7 162.7 91.3 168.3 137 170.2C182.7 172 228.3 170 274 180.2C319.7 190.3 365.3 212.7 411.2 215.2C457 217.7 503 200.3 548.8 195.8C594.7 191.3 640.3 199.7 686 202.5C731.7 205.3 777.3 202.7 823 198.8C868.7 195 914.3 190 937.2 187.5L960 185L960 0L937.2 0C914.3 0 868.7 0 823 0C777.3 0 731.7 0 686 0C640.3 0 594.7 0 548.8 0C503 0 457 0 411.2 0C365.3 0 319.7 0 274 0C228.3 0 182.7 0 137 0C91.3 0 45.7 0 22.8 0L0 0Z" fill="#e94560"></path><path d="M0 167L22.8 158.5C45.7 150 91.3 133 137 133C182.7 133 228.3 150 274 152.3C319.7 154.7 365.3 142.3 411.2 146.8C457 151.3 503 172.7 548.8 179.7C594.7 186.7 640.3 179.3 686 175.2C731.7 171 777.3 170 823 166.8C868.7 163.7 914.3 158.3 937.2 155.7L960 153L960 0L937.2 0C914.3 0 868.7 0 823 0C777.3 0 731.7 0 686 0C640.3 0 594.7 0 548.8 0C503 0 457 0 411.2 0C365.3 0 319.7 0 274 0C228.3 0 182.7 0 137 0C91.3 0 45.7 0 22.8 0L0 0Z" fill="#e9247a"></path><path d="M0 102L22.8 100.5C45.7 99 91.3 96 137 100.5C182.7 105 228.3 117 274 126.5C319.7 136 365.3 143 411.2 141.8C457 140.7 503 131.3 548.8 128.7C594.7 126 640.3 130 686 127.8C731.7 125.7 777.3 117.3 823 114.5C868.7 111.7 914.3 114.3 937.2 115.7L960 117L960 0L937.2 0C914.3 0 868.7 0 823 0C777.3 0 731.7 0 686 0C640.3 0 594.7 0 548.8 0C503 0 457 0 411.2 0C365.3 0 319.7 0 274 0C228.3 0 182.7 0 137 0C91.3 0 45.7 0 22.8 0L0 0Z" fill="#dc009b"></path><path d="M0 72L22.8 74.8C45.7 77.7 91.3 83.3 137 84.8C182.7 86.3 228.3 83.7 274 79.2C319.7 74.7 365.3 68.3 411.2 72.3C457 76.3 503 90.7 548.8 94C594.7 97.3 640.3 89.7 686 86.5C731.7 83.3 777.3 84.7 823 84.3C868.7 84 914.3 82 937.2 81L960 80L960 0L937.2 0C914.3 0 868.7 0 823 0C777.3 0 731.7 0 686 0C640.3 0 594.7 0 548.8 0C503 0 457 0 411.2 0C365.3 0 319.7 0 274 0C228.3 0 182.7 0 137 0C91.3 0 45.7 0 22.8 0L0 0Z" fill="#b500c7"></path><path d="M0 41L22.8 37.8C45.7 34.7 91.3 28.3 137 28C182.7 27.7 228.3 33.3 274 33.8C319.7 34.3 365.3 29.7 411.2 32.3C457 35 503 45 548.8 50.2C594.7 55.3 640.3 55.7 686 50.7C731.7 45.7 777.3 35.3 823 34.5C868.7 33.7 914.3 42.3 937.2 46.7L960 51L960 0L937.2 0C914.3 0 868.7 0 823 0C777.3 0 731.7 0 686 0C640.3 0 594.7 0 548.8 0C503 0 457 0 411.2 0C365.3 0 319.7 0 274 0C228.3 0 182.7 0 137 0C91.3 0 45.7 0 22.8 0L0 0Z" fill="#0000ff"></path></svg>