<svg id="visual" viewBox="0 0 960 300" width="960" height="300" xmlns="http://www.w3.org/2000/svg" xmlns:xlink="http://www.w3.org/1999/xlink" version="1.1"><rect x="0" y="0" width="960" height="300" fill="#0656D3"></rect><path d="M0 115L20 117.5C40 120 80 125 120 130.7C160 136.3 200 142.7 240 144.8C280 147 320 145 360 131.8C400 118.7 440 94.3 480 85.3C520 76.3 560 82.7 600 96C640 109.3 680 129.7 720 126C760 122.3 800 94.7 840 83.8C880 73 920 79 940 82L960 85L960 301L940 301C920 301 880 301 840 301C800 301 760 301 720 301C680 301 640 301 600 301C560 301 520 301 480 301C440 301 400 301 360 301C320 301 280 301 240 301C200 301 160 301 120 301C80 301 40 301 20 301L0 301Z" fill="#46d5d7"></path><path d="M0 182L20 182.7C40 183.3 80 184.7 120 177C160 169.3 200 152.7 240 145C280 137.3 320 138.7 360 140.3C400 142 440 144 480 147.5C520 151 560 156 600 161.8C640 167.7 680 174.3 720 167C760 159.7 800 138.3 840 139.7C880 141 920 165 940 177L960 189L960 301L940 301C920 301 880 301 840 301C800 301 760 301 720 301C680 301 640 301 600 301C560 301 520 301 480 301C440 301 400 301 360 301C320 301 280 301 240 301C200 301 160 301 120 301C80 301 40 301 20 301L0 301Z" fill="#12b1c8"></path><path d="M0 163L20 160.3C40 157.7 80 152.3 120 151.5C160 150.7 200 154.3 240 166.2C280 178 320 198 360 206.7C400 215.3 440 212.7 480 207.5C520 202.3 560 194.7 600 190.7C640 186.7 680 186.3 720 185C760 183.7 800 181.3 840 186.8C880 192.3 920 205.7 940 212.3L960 219L960 301L940 301C920 301 880 301 840 301C800 301 760 301 720 301C680 301 640 301 600 301C560 301 520 301 480 301C440 301 400 301 360 301C320 301 280 301 240 301C200 301 160 301 120 301C80 301 40 301 20 301L0 301Z" fill="#008db2"></path><path d="M0 194L20 193C40 192 80 190 120 186.2C160 182.3 200 176.7 240 181.2C280 185.7 320 200.3 360 211.7C400 223 440 231 480 230.5C520 230 560 221 600 212C640 203 680 194 720 186.7C760 179.3 800 173.7 840 175.3C880 177 920 186 940 190.5L960 195L960 301L940 301C920 301 880 301 840 301C800 301 760 301 720 301C680 301 640 301 600 301C560 301 520 301 480 301C440 301 400 301 360 301C320 301 280 301 240 301C200 301 160 301 120 301C80 301 40 301 20 301L0 301Z" fill="#186a96"></path><path d="M0 215L20 212.7C40 210.3 80 205.7 120 209.5C160 213.3 200 225.7 240 233.3C280 241 320 244 360 241.2C400 238.3 440 229.7 480 228.3C520 227 560 233 600 231.5C640 230 680 221 720 222.3C760 223.7 800 235.3 840 234.7C880 234 920 221 940 214.5L960 208L960 301L940 301C920 301 880 301 840 301C800 301 760 301 720 301C680 301 640 301 600 301C560 301 520 301 480 301C440 301 400 301 360 301C320 301 280 301 240 301C200 301 160 301 120 301C80 301 40 301 20 301L0 301Z" fill="#254874"></path><path d="M0 271L20 270.7C40 270.3 80 269.7 120 270.2C160 270.7 200 272.3 240 270.7C280 269 320 264 360 263C400 262 440 265 480 263.8C520 262.7 560 257.3 600 254.3C640 251.3 680 250.7 720 250.2C760 249.7 800 249.3 840 247.2C880 245 920 241 940 239L960 237L960 301L940 301C920 301 880 301 840 301C800 301 760 301 720 301C680 301 640 301 600 301C560 301 520 301 480 301C440 301 400 301 360 301C320 301 280 301 240 301C200 301 160 301 120 301C80 301 40 301 20 301L0 301Z" fill="#262950"></path></svg>